STARTFONT 2.1
FONT -t-cherry-Bold-R-Normal--12-110-75-75-C-100-ISO8859-1
SIZE 11 75 75
FONTBOUNDINGBOX 6 12 0 -2
STARTPROPERTIES 14
POINT_SIZE 110
PIXEL_SIZE 12
RESOLUTION_X 75
RESOLUTION_Y 75
AVERAGE_WIDTH 100
SPACING "C"
CHARSET_ENCODING "1"
CHARSET_REGISTRY "ISO8859"
FOUNDRY "t"
FAMILY_NAME "cherry"
FONT_ASCENT 10
FONT_DESCENT 2
WEIGHT_NAME "Bold"
_GBDFED_INFO "Edited with gbdfed 1.6."
ENDPROPERTIES
CHARS 191
STARTCHAR char32
ENCODING 32
SWIDTH 523 0
DWIDTH 6 0
BBX 6 12 0 -2
BITMAP
00
00
00
00
00
00
00
00
00
00
00
00
ENDCHAR
STARTCHAR char33
ENCODING 33
SWIDTH 523 0
DWIDTH 6 0
BBX 6 12 0 -2
BITMAP
00
30
30
30
30
30
30
00
30
30
00
00
ENDCHAR
STARTCHAR char34
ENCODING 34
SWIDTH 523 0
DWIDTH 6 0
BBX 6 12 0 -2
BITMAP
00
6C
6C
6C
00
00
00
00
00
00
00
00
ENDCHAR
STARTCHAR char35
ENCODING 35
SWIDTH 523 0
DWIDTH 6 0
BBX 6 12 0 -2
BITMAP
00
28
28
7C
7C
28
7C
7C
28
28
00
00
ENDCHAR
STARTCHAR char36
ENCODING 36
SWIDTH 523 0
DWIDTH 6 0
BBX 6 12 0 -2
BITMAP
00
10
38
74
70
30
18
14
74
38
10
00
ENDCHAR
STARTCHAR char37
ENCODING 37
SWIDTH 523 0
DWIDTH 6 0
BBX 6 12 0 -2
BITMAP
00
04
64
68
68
10
10
2C
2C
4C
40
00
ENDCHAR
STARTCHAR char38
ENCODING 38
SWIDTH 523 0
DWIDTH 6 0
BBX 6 12 0 -2
BITMAP
00
60
D0
D0
D0
60
D4
C8
C8
74
00
00
ENDCHAR
STARTCHAR char39
ENCODING 39
SWIDTH 523 0
DWIDTH 6 0
BBX 6 12 0 -2
BITMAP
00
30
30
30
00
00
00
00
00
00
00
00
ENDCHAR
STARTCHAR char40
ENCODING 40
SWIDTH 523 0
DWIDTH 6 0
BBX 6 12 0 -2
BITMAP
00
18
30
30
60
60
60
60
30
30
18
00
ENDCHAR
STARTCHAR char41
ENCODING 41
SWIDTH 523 0
DWIDTH 6 0
BBX 6 12 0 -2
BITMAP
00
60
30
30
18
18
18
18
30
30
60
00
ENDCHAR
STARTCHAR char42
ENCODING 42
SWIDTH 523 0
DWIDTH 6 0
BBX 6 12 0 -2
BITMAP
00
00
00
10
54
7C
38
7C
54
10
00
00
ENDCHAR
STARTCHAR char43
ENCODING 43
SWIDTH 523 0
DWIDTH 6 0
BBX 6 12 0 -2
BITMAP
00
00
00
30
30
FC
FC
30
30
00
00
00
ENDCHAR
STARTCHAR char44
ENCODING 44
SWIDTH 523 0
DWIDTH 6 0
BBX 6 12 0 -2
BITMAP
00
00
00
00
00
00
00
00
18
18
30
00
ENDCHAR
STARTCHAR char45
ENCODING 45
SWIDTH 523 0
DWIDTH 6 0
BBX 6 12 0 -2
BITMAP
00
00
00
00
00
7C
7C
00
00
00
00
00
ENDCHAR
STARTCHAR char46
ENCODING 46
SWIDTH 523 0
DWIDTH 6 0
BBX 6 12 0 -2
BITMAP
00
00
00
00
00
00
00
00
30
30
00
00
ENDCHAR
STARTCHAR char47
ENCODING 47
SWIDTH 523 0
DWIDTH 6 0
BBX 6 12 0 -2
BITMAP
00
0C
0C
18
18
30
30
60
60
C0
C0
00
ENDCHAR
STARTCHAR char48
ENCODING 48
SWIDTH 523 0
DWIDTH 6 0
BBX 6 12 0 -2
BITMAP
00
38
6C
6C
6C
7C
6C
6C
6C
38
00
00
ENDCHAR
STARTCHAR char49
ENCODING 49
SWIDTH 523 0
DWIDTH 6 0
BBX 6 12 0 -2
BITMAP
00
18
38
58
18
18
18
18
18
18
00
00
ENDCHAR
STARTCHAR char50
ENCODING 50
SWIDTH 523 0
DWIDTH 6 0
BBX 6 12 0 -2
BITMAP
00
38
6C
6C
0C
18
20
40
7C
7C
00
00
ENDCHAR
STARTCHAR char51
ENCODING 51
SWIDTH 523 0
DWIDTH 6 0
BBX 6 12 0 -2
BITMAP
00
78
0C
0C
0C
38
0C
0C
0C
78
00
00
ENDCHAR
STARTCHAR char52
ENCODING 52
SWIDTH 523 0
DWIDTH 6 0
BBX 6 12 0 -2
BITMAP
00
18
38
38
58
58
7C
18
18
18
00
00
ENDCHAR
STARTCHAR char53
ENCODING 53
SWIDTH 523 0
DWIDTH 6 0
BBX 6 12 0 -2
BITMAP
00
7C
60
60
60
78
0C
0C
0C
78
00
00
ENDCHAR
STARTCHAR char54
ENCODING 54
SWIDTH 523 0
DWIDTH 6 0
BBX 6 12 0 -2
BITMAP
00
38
60
60
60
78
6C
6C
6C
38
00
00
ENDCHAR
STARTCHAR char55
ENCODING 55
SWIDTH 523 0
DWIDTH 6 0
BBX 6 12 0 -2
BITMAP
00
7C
7C
04
08
18
18
30
30
30
00
00
ENDCHAR
STARTCHAR char56
ENCODING 56
SWIDTH 523 0
DWIDTH 6 0
BBX 6 12 0 -2
BITMAP
00
38
6C
6C
6C
38
6C
6C
6C
38
00
00
ENDCHAR
STARTCHAR char57
ENCODING 57
SWIDTH 523 0
DWIDTH 6 0
BBX 6 12 0 -2
BITMAP
00
38
6C
6C
6C
3C
0C
0C
0C
38
00
00
ENDCHAR
STARTCHAR char58
ENCODING 58
SWIDTH 523 0
DWIDTH 6 0
BBX 6 12 0 -2
BITMAP
00
00
00
00
30
30
00
00
30
30
00
00
ENDCHAR
STARTCHAR char59
ENCODING 59
SWIDTH 523 0
DWIDTH 6 0
BBX 6 12 0 -2
BITMAP
00
00
00
00
30
30
00
00
30
30
60
00
ENDCHAR
STARTCHAR char60
ENCODING 60
SWIDTH 523 0
DWIDTH 6 0
BBX 6 12 0 -2
BITMAP
00
00
00
00
18
70
C0
70
18
00
00
00
ENDCHAR
STARTCHAR char61
ENCODING 61
SWIDTH 523 0
DWIDTH 6 0
BBX 6 12 0 -2
BITMAP
00
00
00
00
7C
7C
00
7C
7C
00
00
00
ENDCHAR
STARTCHAR char62
ENCODING 62
SWIDTH 523 0
DWIDTH 6 0
BBX 6 12 0 -2
BITMAP
00
00
00
00
60
38
0C
38
60
00
00
00
ENDCHAR
STARTCHAR char63
ENCODING 63
SWIDTH 523 0
DWIDTH 6 0
BBX 6 12 0 -2
BITMAP
00
38
7C
64
08
10
30
00
30
30
00
00
ENDCHAR
STARTCHAR char64
ENCODING 64
SWIDTH 523 0
DWIDTH 6 0
BBX 6 12 0 -2
BITMAP
00
78
CC
9C
AC
AC
AC
9C
C0
78
00
00
ENDCHAR
STARTCHAR char65
ENCODING 65
SWIDTH 523 0
DWIDTH 6 0
BBX 6 12 0 -2
BITMAP
00
38
38
6C
6C
7C
6C
6C
6C
6C
00
00
ENDCHAR
STARTCHAR char66
ENCODING 66
SWIDTH 523 0
DWIDTH 6 0
BBX 6 12 0 -2
BITMAP
00
78
6C
6C
6C
78
6C
6C
6C
78
00
00
ENDCHAR
STARTCHAR char67
ENCODING 67
SWIDTH 523 0
DWIDTH 6 0
BBX 6 12 0 -2
BITMAP
00
38
64
60
60
60
60
60
64
38
00
00
ENDCHAR
STARTCHAR char68
ENCODING 68
SWIDTH 523 0
DWIDTH 6 0
BBX 6 12 0 -2
BITMAP
00
78
6C
6C
6C
6C
6C
6C
6C
78
00
00
ENDCHAR
STARTCHAR char69
ENCODING 69
SWIDTH 523 0
DWIDTH 6 0
BBX 6 12 0 -2
BITMAP
00
7C
60
60
60
78
60
60
60
7C
00
00
ENDCHAR
STARTCHAR char70
ENCODING 70
SWIDTH 523 0
DWIDTH 6 0
BBX 6 12 0 -2
BITMAP
00
7C
60
60
60
78
60
60
60
60
00
00
ENDCHAR
STARTCHAR char71
ENCODING 71
SWIDTH 523 0
DWIDTH 6 0
BBX 6 12 0 -2
BITMAP
00
38
6C
60
60
6C
6C
6C
6C
38
00
00
ENDCHAR
STARTCHAR char72
ENCODING 72
SWIDTH 523 0
DWIDTH 6 0
BBX 6 12 0 -2
BITMAP
00
6C
6C
6C
6C
7C
6C
6C
6C
6C
00
00
ENDCHAR
STARTCHAR char73
ENCODING 73
SWIDTH 523 0
DWIDTH 6 0
BBX 6 12 0 -2
BITMAP
00
78
30
30
30
30
30
30
30
78
00
00
ENDCHAR
STARTCHAR char74
ENCODING 74
SWIDTH 523 0
DWIDTH 6 0
BBX 6 12 0 -2
BITMAP
00
78
18
18
18
18
18
18
18
70
00
00
ENDCHAR
STARTCHAR char75
ENCODING 75
SWIDTH 523 0
DWIDTH 6 0
BBX 6 12 0 -2
BITMAP
00
6C
6C
6C
78
70
78
6C
6C
6C
00
00
ENDCHAR
STARTCHAR char76
ENCODING 76
SWIDTH 523 0
DWIDTH 6 0
BBX 6 12 0 -2
BITMAP
00
60
60
60
60
60
60
60
60
78
00
00
ENDCHAR
STARTCHAR char77
ENCODING 77
SWIDTH 523 0
DWIDTH 6 0
BBX 6 12 0 -2
BITMAP
00
6C
7C
7C
6C
6C
6C
6C
6C
6C
00
00
ENDCHAR
STARTCHAR char78
ENCODING 78
SWIDTH 523 0
DWIDTH 6 0
BBX 6 12 0 -2
BITMAP
00
64
64
74
74
54
5C
5C
4C
4C
00
00
ENDCHAR
STARTCHAR char79
ENCODING 79
SWIDTH 523 0
DWIDTH 6 0
BBX 6 12 0 -2
BITMAP
00
38
6C
6C
6C
6C
6C
6C
6C
38
00
00
ENDCHAR
STARTCHAR char80
ENCODING 80
SWIDTH 523 0
DWIDTH 6 0
BBX 6 12 0 -2
BITMAP
00
78
6C
6C
6C
78
60
60
60
60
00
00
ENDCHAR
STARTCHAR char81
ENCODING 81
SWIDTH 523 0
DWIDTH 6 0
BBX 6 12 0 -2
BITMAP
00
38
6C
6C
6C
6C
6C
6C
6C
38
0C
00
ENDCHAR
STARTCHAR char82
ENCODING 82
SWIDTH 523 0
DWIDTH 6 0
BBX 6 12 0 -2
BITMAP
00
78
6C
6C
6C
78
6C
6C
6C
6C
00
00
ENDCHAR
STARTCHAR char83
ENCODING 83
SWIDTH 523 0
DWIDTH 6 0
BBX 6 12 0 -2
BITMAP
00
3C
60
60
60
38
0C
0C
0C
78
00
00
ENDCHAR
STARTCHAR char84
ENCODING 84
SWIDTH 523 0
DWIDTH 6 0
BBX 6 12 0 -2
BITMAP
00
FC
30
30
30
30
30
30
30
30
00
00
ENDCHAR
STARTCHAR char85
ENCODING 85
SWIDTH 523 0
DWIDTH 6 0
BBX 6 12 0 -2
BITMAP
00
6C
6C
6C
6C
6C
6C
6C
6C
3C
00
00
ENDCHAR
STARTCHAR char86
ENCODING 86
SWIDTH 523 0
DWIDTH 6 0
BBX 6 12 0 -2
BITMAP
00
6C
6C
6C
6C
6C
6C
6C
38
38
00
00
ENDCHAR
STARTCHAR char87
ENCODING 87
SWIDTH 523 0
DWIDTH 6 0
BBX 6 12 0 -2
BITMAP
00
6C
6C
6C
6C
6C
6C
7C
7C
6C
00
00
ENDCHAR
STARTCHAR char88
ENCODING 88
SWIDTH 523 0
DWIDTH 6 0
BBX 6 12 0 -2
BITMAP
00
6C
6C
6C
6C
38
6C
6C
6C
6C
00
00
ENDCHAR
STARTCHAR char89
ENCODING 89
SWIDTH 523 0
DWIDTH 6 0
BBX 6 12 0 -2
BITMAP
00
C4
C4
68
78
30
30
30
30
30
00
00
ENDCHAR
STARTCHAR char90
ENCODING 90
SWIDTH 523 0
DWIDTH 6 0
BBX 6 12 0 -2
BITMAP
00
7C
0C
0C
18
18
30
30
60
7C
00
00
ENDCHAR
STARTCHAR char91
ENCODING 91
SWIDTH 523 0
DWIDTH 6 0
BBX 6 12 0 -2
BITMAP
00
78
60
60
60
60
60
60
60
60
78
00
ENDCHAR
STARTCHAR char92
ENCODING 92
SWIDTH 523 0
DWIDTH 6 0
BBX 6 12 0 -2
BITMAP
00
C0
C0
60
60
30
30
18
18
0C
0C
00
ENDCHAR
STARTCHAR char93
ENCODING 93
SWIDTH 523 0
DWIDTH 6 0
BBX 6 12 0 -2
BITMAP
00
78
18
18
18
18
18
18
18
18
78
00
ENDCHAR
STARTCHAR char94
ENCODING 94
SWIDTH 523 0
DWIDTH 6 0
BBX 6 12 0 -2
BITMAP
00
10
38
6C
00
00
00
00
00
00
00
00
ENDCHAR
STARTCHAR char95
ENCODING 95
SWIDTH 523 0
DWIDTH 6 0
BBX 6 12 0 -2
BITMAP
00
00
00
00
00
00
00
00
7C
7C
00
00
ENDCHAR
STARTCHAR char96
ENCODING 96
SWIDTH 523 0
DWIDTH 6 0
BBX 6 12 0 -2
BITMAP
00
30
10
08
00
00
00
00
00
00
00
00
ENDCHAR
STARTCHAR char97
ENCODING 97
SWIDTH 523 0
DWIDTH 6 0
BBX 6 12 0 -2
BITMAP
00
00
00
38
0C
0C
3C
6C
6C
3C
00
00
ENDCHAR
STARTCHAR char98
ENCODING 98
SWIDTH 523 0
DWIDTH 6 0
BBX 6 12 0 -2
BITMAP
00
60
60
78
6C
6C
6C
6C
6C
78
00
00
ENDCHAR
STARTCHAR char99
ENCODING 99
SWIDTH 523 0
DWIDTH 6 0
BBX 6 12 0 -2
BITMAP
00
00
00
38
64
60
60
60
64
38
00
00
ENDCHAR
STARTCHAR char100
ENCODING 100
SWIDTH 523 0
DWIDTH 6 0
BBX 6 12 0 -2
BITMAP
00
0C
0C
3C
6C
6C
6C
6C
6C
3C
00
00
ENDCHAR
STARTCHAR char101
ENCODING 101
SWIDTH 523 0
DWIDTH 6 0
BBX 6 12 0 -2
BITMAP
00
00
00
38
6C
6C
7C
60
60
3C
00
00
ENDCHAR
STARTCHAR char102
ENCODING 102
SWIDTH 523 0
DWIDTH 6 0
BBX 6 12 0 -2
BITMAP
00
1C
30
30
7C
30
30
30
30
30
00
00
ENDCHAR
STARTCHAR char103
ENCODING 103
SWIDTH 523 0
DWIDTH 6 0
BBX 6 12 0 -2
BITMAP
00
00
00
3C
6C
6C
6C
6C
6C
3C
0C
38
ENDCHAR
STARTCHAR char104
ENCODING 104
SWIDTH 523 0
DWIDTH 6 0
BBX 6 12 0 -2
BITMAP
00
60
60
78
6C
6C
6C
6C
6C
6C
00
00
ENDCHAR
STARTCHAR char105
ENCODING 105
SWIDTH 523 0
DWIDTH 6 0
BBX 6 12 0 -2
BITMAP
30
30
00
70
30
30
30
30
30
30
00
00
ENDCHAR
STARTCHAR char106
ENCODING 106
SWIDTH 523 0
DWIDTH 6 0
BBX 6 12 0 -2
BITMAP
30
30
00
70
30
30
30
30
30
30
30
E0
ENDCHAR
STARTCHAR char107
ENCODING 107
SWIDTH 523 0
DWIDTH 6 0
BBX 6 12 0 -2
BITMAP
00
60
60
6C
6C
78
70
78
6C
6C
00
00
ENDCHAR
STARTCHAR char108
ENCODING 108
SWIDTH 523 0
DWIDTH 6 0
BBX 6 12 0 -2
BITMAP
00
70
30
30
30
30
30
30
30
30
00
00
ENDCHAR
STARTCHAR char109
ENCODING 109
SWIDTH 523 0
DWIDTH 6 0
BBX 6 12 0 -2
BITMAP
00
00
00
6C
7C
7C
6C
6C
6C
6C
00
00
ENDCHAR
STARTCHAR char110
ENCODING 110
SWIDTH 523 0
DWIDTH 6 0
BBX 6 12 0 -2
BITMAP
00
00
00
78
6C
6C
6C
6C
6C
6C
00
00
ENDCHAR
STARTCHAR char111
ENCODING 111
SWIDTH 523 0
DWIDTH 6 0
BBX 6 12 0 -2
BITMAP
00
00
00
38
6C
6C
6C
6C
6C
38
00
00
ENDCHAR
STARTCHAR char112
ENCODING 112
SWIDTH 523 0
DWIDTH 6 0
BBX 6 12 0 -2
BITMAP
00
00
00
78
6C
6C
6C
6C
6C
78
60
60
ENDCHAR
STARTCHAR char113
ENCODING 113
SWIDTH 523 0
DWIDTH 6 0
BBX 6 12 0 -2
BITMAP
00
00
00
3C
6C
6C
6C
6C
6C
3C
0C
0C
ENDCHAR
STARTCHAR char114
ENCODING 114
SWIDTH 523 0
DWIDTH 6 0
BBX 6 12 0 -2
BITMAP
00
00
00
6C
70
60
60
60
60
60
00
00
ENDCHAR
STARTCHAR char115
ENCODING 115
SWIDTH 523 0
DWIDTH 6 0
BBX 6 12 0 -2
BITMAP
00
00
00
3C
60
60
38
0C
0C
78
00
00
ENDCHAR
STARTCHAR char116
ENCODING 116
SWIDTH 523 0
DWIDTH 6 0
BBX 6 12 0 -2
BITMAP
00
30
30
7C
30
30
30
30
30
1C
00
00
ENDCHAR
STARTCHAR char117
ENCODING 117
SWIDTH 523 0
DWIDTH 6 0
BBX 6 12 0 -2
BITMAP
00
00
00
6C
6C
6C
6C
6C
6C
3C
00
00
ENDCHAR
STARTCHAR char118
ENCODING 118
SWIDTH 523 0
DWIDTH 6 0
BBX 6 12 0 -2
BITMAP
00
00
00
6C
6C
6C
6C
6C
38
38
00
00
ENDCHAR
STARTCHAR char119
ENCODING 119
SWIDTH 523 0
DWIDTH 6 0
BBX 6 12 0 -2
BITMAP
00
00
00
6C
6C
6C
6C
7C
7C
6C
00
00
ENDCHAR
STARTCHAR char120
ENCODING 120
SWIDTH 523 0
DWIDTH 6 0
BBX 6 12 0 -2
BITMAP
00
00
00
6C
6C
6C
38
6C
6C
6C
00
00
ENDCHAR
STARTCHAR char121
ENCODING 121
SWIDTH 523 0
DWIDTH 6 0
BBX 6 12 0 -2
BITMAP
00
00
00
6C
6C
6C
6C
6C
6C
3C
0C
38
ENDCHAR
STARTCHAR char122
ENCODING 122
SWIDTH 523 0
DWIDTH 6 0
BBX 6 12 0 -2
BITMAP
00
00
00
7C
0C
0C
18
30
60
7C
00
00
ENDCHAR
STARTCHAR char123
ENCODING 123
SWIDTH 523 0
DWIDTH 6 0
BBX 6 12 0 -2
BITMAP
00
1C
30
30
30
E0
E0
30
30
30
1C
00
ENDCHAR
STARTCHAR char124
ENCODING 124
SWIDTH 523 0
DWIDTH 6 0
BBX 6 12 0 -2
BITMAP
00
30
30
30
30
30
30
30
30
30
30
00
ENDCHAR
STARTCHAR char125
ENCODING 125
SWIDTH 523 0
DWIDTH 6 0
BBX 6 12 0 -2
BITMAP
00
E0
30
30
30
1C
1C
30
30
30
E0
00
ENDCHAR
STARTCHAR char126
ENCODING 126
SWIDTH 523 0
DWIDTH 6 0
BBX 6 12 0 -2
BITMAP
00
00
00
00
20
74
5C
08
00
00
00
00
ENDCHAR
STARTCHAR char160
ENCODING 160
SWIDTH 523 0
DWIDTH 6 0
BBX 6 12 0 -2
BITMAP
00
00
00
00
00
00
00
44
7C
7C
00
00
ENDCHAR
STARTCHAR char161
ENCODING 161
SWIDTH 523 0
DWIDTH 6 0
BBX 6 12 0 -2
BITMAP
00
30
30
00
00
30
30
30
30
30
00
00
ENDCHAR
STARTCHAR char162
ENCODING 162
SWIDTH 523 0
DWIDTH 6 0
BBX 6 12 0 -2
BITMAP
00
00
08
3C
68
68
68
68
68
3C
08
00
ENDCHAR
STARTCHAR char163
ENCODING 163
SWIDTH 523 0
DWIDTH 6 0
BBX 6 12 0 -2
BITMAP
00
18
34
34
30
78
30
24
7C
7C
00
00
ENDCHAR
STARTCHAR char164
ENCODING 164
SWIDTH 523 0
DWIDTH 6 0
BBX 6 12 0 -2
BITMAP
00
00
00
00
6C
7C
28
7C
6C
00
00
00
ENDCHAR
STARTCHAR char165
ENCODING 165
SWIDTH 523 0
DWIDTH 6 0
BBX 6 12 0 -2
BITMAP
00
C4
C4
68
78
FC
30
FC
30
30
00
00
ENDCHAR
STARTCHAR char166
ENCODING 166
SWIDTH 523 0
DWIDTH 6 0
BBX 6 12 0 -2
BITMAP
00
30
30
30
30
00
30
30
30
30
00
00
ENDCHAR
STARTCHAR char167
ENCODING 167
SWIDTH 523 0
DWIDTH 6 0
BBX 6 12 0 -2
BITMAP
00
38
68
60
70
48
48
38
18
58
70
00
ENDCHAR
STARTCHAR char168
ENCODING 168
SWIDTH 523 0
DWIDTH 6 0
BBX 6 12 0 -2
BITMAP
00
28
28
00
00
00
00
00
00
00
00
00
ENDCHAR
STARTCHAR char169
ENCODING 169
SWIDTH 523 0
DWIDTH 6 0
BBX 6 12 0 -2
BITMAP
00
78
84
B4
E4
E4
E4
B4
84
78
00
00
ENDCHAR
STARTCHAR char170
ENCODING 170
SWIDTH 523 0
DWIDTH 6 0
BBX 6 12 0 -2
BITMAP
00
3C
6C
6C
3C
00
7C
7C
00
00
00
00
ENDCHAR
STARTCHAR char171
ENCODING 171
SWIDTH 523 0
DWIDTH 6 0
BBX 6 12 0 -2
BITMAP
00
00
00
00
24
48
6C
24
00
00
00
00
ENDCHAR
STARTCHAR char172
ENCODING 172
SWIDTH 523 0
DWIDTH 6 0
BBX 6 12 0 -2
BITMAP
00
00
00
00
00
7C
7C
0C
0C
0C
00
00
ENDCHAR
STARTCHAR char173
ENCODING 173
SWIDTH 523 0
DWIDTH 6 0
BBX 6 12 0 -2
BITMAP
00
00
00
00
00
7C
7C
00
00
00
00
00
ENDCHAR
STARTCHAR char174
ENCODING 174
SWIDTH 523 0
DWIDTH 6 0
BBX 6 12 0 -2
BITMAP
00
78
84
F4
EC
F4
EC
EC
84
78
00
00
ENDCHAR
STARTCHAR char175
ENCODING 175
SWIDTH 523 0
DWIDTH 6 0
BBX 6 12 0 -2
BITMAP
00
7C
7C
00
00
00
00
00
00
00
00
00
ENDCHAR
STARTCHAR char176
ENCODING 176
SWIDTH 523 0
DWIDTH 6 0
BBX 6 12 0 -2
BITMAP
00
38
6C
6C
38
00
00
00
00
00
00
00
ENDCHAR
STARTCHAR char177
ENCODING 177
SWIDTH 523 0
DWIDTH 6 0
BBX 6 12 0 -2
BITMAP
00
00
00
10
10
7C
7C
10
7C
7C
00
00
ENDCHAR
STARTCHAR char178
ENCODING 178
SWIDTH 523 0
DWIDTH 6 0
BBX 6 12 0 -2
BITMAP
00
30
58
10
30
78
00
00
00
00
00
00
ENDCHAR
STARTCHAR char179
ENCODING 179
SWIDTH 523 0
DWIDTH 6 0
BBX 6 12 0 -2
BITMAP
00
70
18
30
18
70
00
00
00
00
00
00
ENDCHAR
STARTCHAR char180
ENCODING 180
SWIDTH 523 0
DWIDTH 6 0
BBX 6 12 0 -2
BITMAP
00
30
20
40
00
00
00
00
00
00
00
00
ENDCHAR
STARTCHAR char181
ENCODING 181
SWIDTH 523 0
DWIDTH 6 0
BBX 6 12 0 -2
BITMAP
00
00
00
6C
6C
6C
6C
6C
6C
7C
6C
60
ENDCHAR
STARTCHAR char182
ENCODING 182
SWIDTH 523 0
DWIDTH 6 0
BBX 6 12 0 -2
BITMAP
00
7C
EC
EC
EC
6C
2C
2C
2C
2C
00
00
ENDCHAR
STARTCHAR char183
ENCODING 183
SWIDTH 523 0
DWIDTH 6 0
BBX 6 12 0 -2
BITMAP
00
00
00
00
00
30
30
00
00
00
00
00
ENDCHAR
STARTCHAR char184
ENCODING 184
SWIDTH 523 0
DWIDTH 6 0
BBX 6 12 0 -2
BITMAP
00
00
00
00
00
00
00
00
00
00
18
30
ENDCHAR
STARTCHAR char185
ENCODING 185
SWIDTH 523 0
DWIDTH 6 0
BBX 6 12 0 -2
BITMAP
00
18
38
58
18
18
00
00
00
00
00
00
ENDCHAR
STARTCHAR char186
ENCODING 186
SWIDTH 523 0
DWIDTH 6 0
BBX 6 12 0 -2
BITMAP
00
38
6C
6C
38
00
7C
7C
00
00
00
00
ENDCHAR
STARTCHAR char187
ENCODING 187
SWIDTH 523 0
DWIDTH 6 0
BBX 6 12 0 -2
BITMAP
00
00
00
00
48
24
6C
48
00
00
00
00
ENDCHAR
STARTCHAR char188
ENCODING 188
SWIDTH 523 0
DWIDTH 6 0
BBX 6 12 0 -2
BITMAP
00
40
C0
44
48
50
24
4C
14
1C
04
00
ENDCHAR
STARTCHAR char189
ENCODING 189
SWIDTH 523 0
DWIDTH 6 0
BBX 6 12 0 -2
BITMAP
00
40
C0
44
48
50
28
54
04
08
1C
00
ENDCHAR
STARTCHAR char190
ENCODING 190
SWIDTH 523 0
DWIDTH 6 0
BBX 6 12 0 -2
BITMAP
00
C0
20
C4
28
D0
24
4C
14
1C
04
00
ENDCHAR
STARTCHAR char191
ENCODING 191
SWIDTH 523 0
DWIDTH 6 0
BBX 6 12 0 -2
BITMAP
00
60
60
00
60
20
10
C8
F8
70
00
00
ENDCHAR
STARTCHAR char192
ENCODING 192
SWIDTH 523 0
DWIDTH 6 0
BBX 6 12 0 -2
BITMAP
20
10
38
38
6C
6C
7C
6C
6C
6C
00
00
ENDCHAR
STARTCHAR char193
ENCODING 193
SWIDTH 523 0
DWIDTH 6 0
BBX 6 12 0 -2
BITMAP
08
10
38
38
6C
6C
7C
6C
6C
6C
00
00
ENDCHAR
STARTCHAR char194
ENCODING 194
SWIDTH 523 0
DWIDTH 6 0
BBX 6 12 0 -2
BITMAP
10
28
38
38
6C
6C
7C
6C
6C
6C
00
00
ENDCHAR
STARTCHAR char195
ENCODING 195
SWIDTH 523 0
DWIDTH 6 0
BBX 6 12 0 -2
BITMAP
14
28
38
38
6C
6C
7C
6C
6C
6C
00
00
ENDCHAR
STARTCHAR char196
ENCODING 196
SWIDTH 523 0
DWIDTH 6 0
BBX 6 12 0 -2
BITMAP
28
00
38
38
6C
6C
7C
6C
6C
6C
00
00
ENDCHAR
STARTCHAR char196
ENCODING 197
SWIDTH 523 0
DWIDTH 6 0
BBX 6 12 0 -2
BITMAP
38
44
38
38
6C
6C
7C
6C
6C
6C
00
00
ENDCHAR
STARTCHAR char197
ENCODING 198
SWIDTH 523 0
DWIDTH 6 0
BBX 6 12 0 -2
BITMAP
00
1C
38
38
58
5C
78
98
98
9C
00
00
ENDCHAR
STARTCHAR char198
ENCODING 199
SWIDTH 523 0
DWIDTH 6 0
BBX 6 12 0 -2
BITMAP
00
38
64
60
60
60
60
60
64
38
18
30
ENDCHAR
STARTCHAR char200
ENCODING 200
SWIDTH 523 0
DWIDTH 6 0
BBX 6 12 0 -2
BITMAP
20
10
7C
60
60
78
60
60
60
7C
00
00
ENDCHAR
STARTCHAR char201
ENCODING 201
SWIDTH 523 0
DWIDTH 6 0
BBX 6 12 0 -2
BITMAP
08
10
7C
60
60
78
60
60
60
7C
00
00
ENDCHAR
STARTCHAR char202
ENCODING 202
SWIDTH 523 0
DWIDTH 6 0
BBX 6 12 0 -2
BITMAP
10
28
7C
60
60
78
60
60
60
7C
00
00
ENDCHAR
STARTCHAR char202
ENCODING 203
SWIDTH 523 0
DWIDTH 6 0
BBX 6 12 0 -2
BITMAP
28
00
7C
60
60
78
60
60
60
7C
00
00
ENDCHAR
STARTCHAR char204
ENCODING 204
SWIDTH 523 0
DWIDTH 6 0
BBX 6 12 0 -2
BITMAP
20
10
78
30
30
30
30
30
30
78
00
00
ENDCHAR
STARTCHAR char205
ENCODING 205
SWIDTH 523 0
DWIDTH 6 0
BBX 6 12 0 -2
BITMAP
10
20
78
30
30
30
30
30
30
78
00
00
ENDCHAR
STARTCHAR char206
ENCODING 206
SWIDTH 523 0
DWIDTH 6 0
BBX 6 12 0 -2
BITMAP
10
28
78
30
30
30
30
30
30
78
00
00
ENDCHAR
STARTCHAR char207
ENCODING 207
SWIDTH 523 0
DWIDTH 6 0
BBX 6 12 0 -2
BITMAP
48
00
78
30
30
30
30
30
30
78
00
00
ENDCHAR
STARTCHAR char208
ENCODING 208
SWIDTH 523 0
DWIDTH 6 0
BBX 6 12 0 -2
BITMAP
00
78
6C
6C
6C
FC
6C
6C
6C
78
00
00
ENDCHAR
STARTCHAR char209
ENCODING 209
SWIDTH 523 0
DWIDTH 6 0
BBX 6 12 0 -2
BITMAP
14
28
44
64
64
74
5C
5C
4C
44
00
00
ENDCHAR
STARTCHAR char210
ENCODING 210
SWIDTH 523 0
DWIDTH 6 0
BBX 6 12 0 -2
BITMAP
20
10
38
6C
6C
6C
6C
6C
6C
38
00
00
ENDCHAR
STARTCHAR char210
ENCODING 211
SWIDTH 523 0
DWIDTH 6 0
BBX 6 12 0 -2
BITMAP
08
10
38
6C
6C
6C
6C
6C
6C
38
00
00
ENDCHAR
STARTCHAR char210
ENCODING 212
SWIDTH 523 0
DWIDTH 6 0
BBX 6 12 0 -2
BITMAP
10
28
38
6C
6C
6C
6C
6C
6C
38
00
00
ENDCHAR
STARTCHAR char210
ENCODING 213
SWIDTH 523 0
DWIDTH 6 0
BBX 6 12 0 -2
BITMAP
14
28
38
6C
6C
6C
6C
6C
6C
38
00
00
ENDCHAR
STARTCHAR char210
ENCODING 214
SWIDTH 523 0
DWIDTH 6 0
BBX 6 12 0 -2
BITMAP
28
00
38
6C
6C
6C
6C
6C
6C
38
00
00
ENDCHAR
STARTCHAR char215
ENCODING 215
SWIDTH 523 0
DWIDTH 6 0
BBX 6 12 0 -2
BITMAP
00
00
00
00
6C
7C
38
7C
6C
00
00
00
ENDCHAR
STARTCHAR char216
ENCODING 216
SWIDTH 523 0
DWIDTH 6 0
BBX 6 12 0 -2
BITMAP
00
30
4C
48
58
78
68
48
C8
30
00
00
ENDCHAR
STARTCHAR char217
ENCODING 217
SWIDTH 523 0
DWIDTH 6 0
BBX 6 12 0 -2
BITMAP
20
10
6C
6C
6C
6C
6C
6C
6C
3C
00
00
ENDCHAR
STARTCHAR char217
ENCODING 218
SWIDTH 523 0
DWIDTH 6 0
BBX 6 12 0 -2
BITMAP
08
10
6C
6C
6C
6C
6C
6C
6C
3C
00
00
ENDCHAR
STARTCHAR char217
ENCODING 219
SWIDTH 523 0
DWIDTH 6 0
BBX 6 12 0 -2
BITMAP
10
28
6C
6C
6C
6C
6C
6C
6C
3C
00
00
ENDCHAR
STARTCHAR char217
ENCODING 220
SWIDTH 523 0
DWIDTH 6 0
BBX 6 12 0 -2
BITMAP
28
00
6C
6C
6C
6C
6C
6C
6C
3C
00
00
ENDCHAR
STARTCHAR char221
ENCODING 221
SWIDTH 523 0
DWIDTH 6 0
BBX 6 12 0 -2
BITMAP
10
20
C4
C4
68
78
30
30
30
30
00
00
ENDCHAR
STARTCHAR char222
ENCODING 222
SWIDTH 523 0
DWIDTH 6 0
BBX 6 12 0 -2
BITMAP
00
60
60
60
78
6C
6C
78
60
60
00
00
ENDCHAR
STARTCHAR char223
ENCODING 223
SWIDTH 523 0
DWIDTH 6 0
BBX 6 12 0 -2
BITMAP
00
70
D8
D0
F0
D8
D8
D8
D8
D0
00
00
ENDCHAR
STARTCHAR char224
ENCODING 224
SWIDTH 523 0
DWIDTH 6 0
BBX 6 12 0 -2
BITMAP
30
10
08
38
0C
0C
3C
6C
6C
3C
00
00
ENDCHAR
STARTCHAR char224
ENCODING 225
SWIDTH 523 0
DWIDTH 6 0
BBX 6 12 0 -2
BITMAP
0C
08
10
38
0C
0C
3C
6C
6C
3C
00
00
ENDCHAR
STARTCHAR char224
ENCODING 226
SWIDTH 523 0
DWIDTH 6 0
BBX 6 12 0 -2
BITMAP
18
34
00
38
0C
0C
3C
6C
6C
3C
00
00
ENDCHAR
STARTCHAR char224
ENCODING 227
SWIDTH 523 0
DWIDTH 6 0
BBX 6 12 0 -2
BITMAP
14
28
00
38
0C
0C
3C
6C
6C
3C
00
00
ENDCHAR
STARTCHAR char224
ENCODING 228
SWIDTH 523 0
DWIDTH 6 0
BBX 6 12 0 -2
BITMAP
28
28
00
38
0C
0C
3C
6C
6C
3C
00
00
ENDCHAR
STARTCHAR char224
ENCODING 229
SWIDTH 523 0
DWIDTH 6 0
BBX 6 12 0 -2
BITMAP
10
28
10
38
0C
0C
3C
6C
6C
3C
00
00
ENDCHAR
STARTCHAR char230
ENCODING 230
SWIDTH 523 0
DWIDTH 6 0
BBX 6 12 0 -2
BITMAP
00
00
00
6C
74
14
38
50
5C
6C
00
00
ENDCHAR
STARTCHAR char231
ENCODING 231
SWIDTH 523 0
DWIDTH 6 0
BBX 6 12 0 -2
BITMAP
00
00
00
38
64
60
60
60
64
38
18
30
ENDCHAR
STARTCHAR char232
ENCODING 232
SWIDTH 523 0
DWIDTH 6 0
BBX 6 12 0 -2
BITMAP
60
20
10
38
6C
6C
7C
60
60
3C
00
00
ENDCHAR
STARTCHAR char232
ENCODING 233
SWIDTH 523 0
DWIDTH 6 0
BBX 6 12 0 -2
BITMAP
0C
08
10
38
6C
6C
7C
60
60
3C
00
00
ENDCHAR
STARTCHAR char232
ENCODING 234
SWIDTH 523 0
DWIDTH 6 0
BBX 6 12 0 -2
BITMAP
18
34
00
38
6C
6C
7C
60
60
3C
00
00
ENDCHAR
STARTCHAR char232
ENCODING 235
SWIDTH 523 0
DWIDTH 6 0
BBX 6 12 0 -2
BITMAP
28
28
00
38
6C
6C
7C
60
60
3C
00
00
ENDCHAR
STARTCHAR char236
ENCODING 236
SWIDTH 523 0
DWIDTH 6 0
BBX 6 12 0 -2
BITMAP
60
20
10
70
30
30
30
30
30
30
00
00
ENDCHAR
STARTCHAR char236
ENCODING 237
SWIDTH 523 0
DWIDTH 6 0
BBX 6 12 0 -2
BITMAP
18
10
20
70
30
30
30
30
30
30
00
00
ENDCHAR
STARTCHAR char236
ENCODING 238
SWIDTH 523 0
DWIDTH 6 0
BBX 6 12 0 -2
BITMAP
30
68
00
70
30
30
30
30
30
30
00
00
ENDCHAR
STARTCHAR char236
ENCODING 239
SWIDTH 523 0
DWIDTH 6 0
BBX 6 12 0 -2
BITMAP
28
28
00
38
18
18
18
18
18
18
00
00
ENDCHAR
STARTCHAR char240
ENCODING 240
SWIDTH 523 0
DWIDTH 6 0
BBX 6 12 0 -2
BITMAP
68
30
58
38
6C
6C
6C
6C
6C
38
00
00
ENDCHAR
STARTCHAR char241
ENCODING 241
SWIDTH 523 0
DWIDTH 6 0
BBX 6 12 0 -2
BITMAP
14
28
00
78
6C
6C
6C
6C
6C
6C
00
00
ENDCHAR
STARTCHAR char242
ENCODING 242
SWIDTH 523 0
DWIDTH 6 0
BBX 6 12 0 -2
BITMAP
60
20
10
38
6C
6C
6C
6C
6C
38
00
00
ENDCHAR
STARTCHAR char210
ENCODING 243
SWIDTH 523 0
DWIDTH 6 0
BBX 6 12 0 -2
BITMAP
0C
08
10
38
6C
6C
6C
6C
6C
38
00
00
ENDCHAR
STARTCHAR char210
ENCODING 244
SWIDTH 523 0
DWIDTH 6 0
BBX 6 12 0 -2
BITMAP
18
34
00
38
6C
6C
6C
6C
6C
38
00
00
ENDCHAR
STARTCHAR char210
ENCODING 245
SWIDTH 523 0
DWIDTH 6 0
BBX 6 12 0 -2
BITMAP
14
28
00
38
6C
6C
6C
6C
6C
38
00
00
ENDCHAR
STARTCHAR char210
ENCODING 246
SWIDTH 523 0
DWIDTH 6 0
BBX 6 12 0 -2
BITMAP
28
28
00
38
6C
6C
6C
6C
6C
38
00
00
ENDCHAR
STARTCHAR char247
ENCODING 247
SWIDTH 523 0
DWIDTH 6 0
BBX 6 12 0 -2
BITMAP
00
00
10
10
00
7C
7C
00
10
10
00
00
ENDCHAR
STARTCHAR char248
ENCODING 248
SWIDTH 523 0
DWIDTH 6 0
BBX 6 12 0 -2
BITMAP
00
00
00
34
48
58
78
68
C8
30
00
00
ENDCHAR
STARTCHAR char249
ENCODING 249
SWIDTH 523 0
DWIDTH 6 0
BBX 6 12 0 -2
BITMAP
60
20
10
6C
6C
6C
6C
6C
6C
3C
00
00
ENDCHAR
STARTCHAR char249
ENCODING 250
SWIDTH 523 0
DWIDTH 6 0
BBX 6 12 0 -2
BITMAP
0C
08
10
6C
6C
6C
6C
6C
6C
3C
00
00
ENDCHAR
STARTCHAR char249
ENCODING 251
SWIDTH 523 0
DWIDTH 6 0
BBX 6 12 0 -2
BITMAP
18
34
00
6C
6C
6C
6C
6C
6C
3C
00
00
ENDCHAR
STARTCHAR char249
ENCODING 252
SWIDTH 523 0
DWIDTH 6 0
BBX 6 12 0 -2
BITMAP
28
28
00
6C
6C
6C
6C
6C
6C
3C
00
00
ENDCHAR
STARTCHAR char253
ENCODING 253
SWIDTH 523 0
DWIDTH 6 0
BBX 6 12 0 -2
BITMAP
0C
08
10
6C
6C
6C
6C
6C
6C
3C
0C
38
ENDCHAR
STARTCHAR char254
ENCODING 254
SWIDTH 523 0
DWIDTH 6 0
BBX 6 12 0 -2
BITMAP
00
60
60
78
6C
6C
6C
6C
78
60
00
00
ENDCHAR
STARTCHAR char255
ENCODING 255
SWIDTH 523 0
DWIDTH 6 0
BBX 6 12 0 -2
BITMAP
28
28
00
6C
6C
6C
6C
6C
6C
3C
0C
38
ENDCHAR
ENDFONT
